<svg width="390" height="224" viewBox="0 0 390 224" fill="none" xmlns="http://www.w3.org/2000/svg">
<path d="M138.372 184.939C77.2191 164.226 -3.57705 197.242 -29.0576 223.134L-17.507 -120.668H389.816C403.009 -43.7108 435.219 107.188 403.557 166.977C363.979 241.713 214.814 210.831 138.372 184.939Z" fill="url(#paint0_linear_67_4913)"/>
<path fill-rule="evenodd" clip-rule="evenodd" d="M-0.91427 203.419C35.4183 184.137 92.4369 169.381 138.372 184.939C207.166 208.241 334.859 235.583 388.569 186.348L388.467 185.594C373.241 191.208 330.462 201.151 281.153 196.015C254.036 193.19 227.044 181.045 199.629 168.711C164.73 153.008 129.146 136.998 91.7491 139.515C38.3309 143.11 7.41229 183.91 -0.934326 203.386C-0.927652 203.397 -0.920966 203.408 -0.91427 203.419Z" fill="url(#paint1_linear_67_4913)"/>
<path fill-rule="evenodd" clip-rule="evenodd" d="M163.414 104.99C167.274 110.476 173.384 118.292 183.136 115.443C192.889 112.593 193.606 106.785 202.591 106.5C211.576 106.215 215.221 112.013 215.221 112.013C215.221 112.013 205.493 103.935 195.434 110.774C182.18 122.519 175.9 119.351 167.936 111.963C165.363 109.327 163.009 104.586 163.414 104.99Z" fill="white"/>
<path fill-rule="evenodd" clip-rule="evenodd" d="M199.382 67.1871C199.382 67.1871 201.636 71.2236 205.643 70.7655C209.651 70.3059 210.244 70.3367 213.027 72.8263C213.027 72.8263 213 69.9522 209.432 66.2745C202.798 61.599 199.485 65.969 199.485 65.969C199.485 65.969 207.07 65.0325 209.915 69.5345C209.915 69.534 206.09 65.1424 199.382 67.1871Z" fill="white"/>
<path fill-rule="evenodd" clip-rule="evenodd" d="M194.644 65.8097C194.644 65.8097 198.846 66.0677 199.835 62.1568C200.824 58.2454 200.871 57.4064 204.183 55.6837C204.183 55.6837 201.136 53.6298 195.311 57.5945C190.837 61.9365 193.54 65.283 193.54 65.283C193.54 65.283 195.349 57.8563 200.565 56.7891C200.565 56.7891 195.105 58.8131 194.644 65.8097Z" fill="white"/>
<path fill-rule="evenodd" clip-rule="evenodd" d="M195.156 69.0947C195.156 69.0947 199.327 69.459 200.566 73.1312C201.806 76.8034 201.907 77.567 205.319 79.5928C205.319 79.5928 202.417 81.0142 196.355 76.6065C191.616 72.0498 194.092 69.413 194.092 69.413C194.092 69.413 196.375 76.3747 201.642 78.0799C201.642 78.0808 196.07 75.4772 195.156 69.0947Z" fill="white"/>
<path fill-rule="evenodd" clip-rule="evenodd" d="M166.096 91.4536C171.07 96.5458 173.022 96.1484 179.933 96.1484C181.661 96.3112 184.123 96.4621 185.674 97.1737C185.671 97.2593 185.64 97.2588 185.567 97.3053C185.728 97.3246 185.751 97.1535 185.721 97.1309C183.948 95.7615 178.86 95.6562 176.507 95.2693C170.95 94.3548 170.918 94.8162 166.096 91.4536Z" fill="white"/>
<path fill-rule="evenodd" clip-rule="evenodd" d="M183.454 97.3418C184.797 98.6284 185.607 98.8888 186.996 100.148C187.397 100.511 188.524 101.379 189.057 101.762C188.435 102.486 185.153 100.263 184.248 99.829C184.764 100.647 186.493 101.456 187.255 101.937C187.75 102.249 189.585 103.195 189.706 101.808C189.803 100.697 184.208 97.7724 183.454 97.3418Z" fill="white"/>
<path fill-rule="evenodd" clip-rule="evenodd" d="M184.453 103.834C186.223 105.414 184.019 104.968 182.953 104.476C176.883 101.672 175.42 97.3074 166.721 98.0457C166.659 98.0393 169.223 98.0425 169.16 98.0554C169.467 98.3102 170.762 98.5844 170.762 98.5844C174.953 99.8337 174.617 100.454 178.112 102.948C186.274 108.774 186.583 104.479 184.453 103.834Z" fill="white"/>
<path fill-rule="evenodd" clip-rule="evenodd" d="M192.449 95.6915C189.417 89.8812 182.389 90.741 179.386 87.4492C181.109 90.4217 187.584 90.8744 190.462 94.6027C192.79 97.6189 193.236 100.366 195.481 103.855C195.53 103.931 195.631 104.058 195.642 104.166C194.832 104.656 193.165 102.001 192.787 101.493C194.242 105.103 196.702 105.145 195.799 103.609" fill="white"/>
<path fill-rule="evenodd" clip-rule="evenodd" d="M190.044 95.8244C190.092 98.4391 193.872 101.851 191.153 101.562C189.721 101.408 188.883 98.7109 187.673 97.4781C185.713 95.4813 186.798 95.5806 185.836 93.6928C185.824 93.6707 185.817 93.6519 185.813 93.6353C185.706 93.5465 185.329 93.2995 185.211 93.1914C185.268 93.202 186.047 93.4251 186.052 93.6187C187.106 95.1455 186.105 95.3387 187.96 97.0241C189.658 98.5665 190.083 100.975 191.6 100.956C191.819 100.198 189.291 97.9059 190.044 95.8244ZM191.597 100.965L191.595 100.97L191.596 100.971L191.597 100.965ZM185.883 93.5139C185.871 93.5203 185.86 93.5281 185.851 93.5378C185.86 93.53 185.871 93.5221 185.883 93.5139Z" fill="white"/>
<path fill-rule="evenodd" clip-rule="evenodd" d="M196.151 67.6809C196.6 67.7287 197.044 67.7931 197.488 67.8571C179.728 66.6841 164.061 79.737 162.165 97.5947C160.221 115.902 173.487 132.318 191.794 134.261C205.414 135.707 217.983 128.731 224.328 117.527C218.155 130.78 204.073 139.286 188.722 137.657C169.399 135.605 155.397 118.278 157.448 98.9545C159.5 79.6317 176.827 65.6298 196.151 67.6809Z" fill="white"/>
<path d="M219.122 108.271C215.201 108.676 215.902 115.435 221.008 114.408C225.143 113.761 226.212 110.388 225.311 108.491C222.866 104.625 219.398 106.023 216.779 107.151C214.047 108.296 214.186 106.261 215.404 104.999C215.385 104.739 213.363 106.025 213.96 107.596C214.558 109.167 218.664 106.388 222.467 107.656C226.269 108.925 221.482 114.11 222.045 111.754C222.608 109.398 220.664 107.918 219.122 108.271Z" fill="white"/>
<path d="M195.968 131.849C195.685 132.253 193.52 127.982 192.678 126.028C191.837 124.073 194.598 120.437 201.58 120.235C208.563 120.033 207.897 121.85 207.897 121.85C207.897 121.85 202.916 119.424 200.617 124.748C197.451 128.925 196.22 128.049 195.968 131.849Z" fill="white"/>
<path d="M182.544 126.048C182.544 126.048 189.978 127.596 194.615 132.094C193.828 129.394 189.861 122.662 182.713 123.311C174.535 124.055 173.197 123.311 173.197 123.311C173.197 123.311 175.129 124.947 180.929 129.408C185.183 132.68 190.632 133.711 193.237 133.559C192.047 131.904 188.815 128.277 182.544 126.048Z" fill="white"/>
<path d="M209.18 123.01C201.448 122.307 197.44 130.239 197.151 132.364C199.101 130.533 203.83 126.527 208.343 126.048C208.343 126.048 202.184 129.119 198.663 133.258C201.271 133.407 206.715 132.375 210.965 129.107C216.764 124.646 218.697 123.01 218.697 123.01C218.697 123.01 217.358 123.753 209.18 123.01Z" fill="white"/>
<path d="M214.045 115.847C217.971 115.22 211.273 109.898 205.614 110.608C200.928 111.11 195.993 115.563 195.993 115.563C195.993 115.563 202.829 111.547 206.687 112.802C211.516 113.92 210.118 116.475 214.045 115.847Z" fill="white"/>
<defs>
<linearGradient id="paint0_linear_67_4913" x1="-29.0576" y1="51.2328" x2="417.058" y2="51.2328" gradientUnits="userSpaceOnUse">
<stop stop-color="#1B75BC"/>
<stop offset="1" stop-color="#218DD6"/>
</linearGradient>
<linearGradient id="paint1_linear_67_4913" x1="407.884" y1="202.593" x2="55.6451" y2="78.4732" gradientUnits="userSpaceOnUse">
<stop stop-color="#1B76BD"/>
<stop offset="1" stop-color="#208BD4"/>
</linearGradient>
</defs>
</svg>
