<svg width="158" height="158" viewBox="0 0 158 158" fill="none" xmlns="http://www.w3.org/2000/svg">
<path fill-rule="evenodd" clip-rule="evenodd" d="M26.4713 92.7215C33.1017 102.143 43.5945 115.568 60.3425 110.674C77.0913 105.779 78.3237 95.8057 93.7548 95.3159C109.184 94.8269 115.444 104.784 115.444 104.784C115.444 104.784 98.7381 90.9109 81.4632 102.656C58.7001 122.827 47.915 117.385 34.2385 104.697C29.8193 100.171 25.7761 92.0279 26.4713 92.7215Z" fill="white"/>
<path fill-rule="evenodd" clip-rule="evenodd" d="M88.2438 27.7993C88.2438 27.7993 92.1132 34.7315 98.9957 33.9447C105.879 33.1555 106.897 33.2084 111.677 37.4839C111.677 37.4839 111.631 32.548 105.502 26.2319C94.1095 18.2024 88.4192 25.7074 88.4192 25.7074C88.4192 25.7074 101.447 24.0989 106.332 31.8307C106.332 31.8299 99.7628 24.2877 88.2438 27.7993Z" fill="white"/>
<path fill-rule="evenodd" clip-rule="evenodd" d="M80.106 25.434C80.106 25.434 87.3227 25.8772 89.0204 19.1606C90.7189 12.4433 90.8003 11.0023 96.4891 8.04374C96.4891 8.04374 91.2561 4.51639 81.2515 11.3254C73.5688 18.7822 78.2108 24.5295 78.2108 24.5295C78.2108 24.5295 81.3163 11.7749 90.2741 9.94211C90.2749 9.94211 80.8976 13.4181 80.106 25.434Z" fill="white"/>
<path fill-rule="evenodd" clip-rule="evenodd" d="M80.9861 31.0754C80.9861 31.0754 88.1482 31.7011 90.2757 38.0077C92.4055 44.3143 92.5793 45.6257 98.4395 49.1048C98.4395 49.1048 93.4554 51.5459 83.0448 43.9761C74.9054 36.1504 79.1572 31.6221 79.1572 31.6221C79.1572 31.6221 83.078 43.578 92.1243 46.5065C92.1243 46.5081 82.5542 42.0367 80.9861 31.0754Z" fill="white"/>
<path fill-rule="evenodd" clip-rule="evenodd" d="M31.0778 69.4749C39.6208 78.2202 42.972 77.5376 54.841 77.5376C57.8098 77.8173 62.0379 78.0764 64.701 79.2985C64.6962 79.4454 64.6433 79.4447 64.5177 79.5244C64.7934 79.5576 64.8337 79.2637 64.7823 79.225C61.7361 76.8732 52.9987 76.6923 48.9578 76.0279C39.4138 74.4574 39.3585 75.2498 31.0778 69.4749Z" fill="white"/>
<path fill-rule="evenodd" clip-rule="evenodd" d="M60.8893 79.5869C63.1953 81.7965 64.5865 82.2437 66.9723 84.4059C67.6604 85.03 69.5959 86.5207 70.5115 87.1788C69.4434 88.4207 63.8068 84.6042 62.252 83.8584C63.1384 85.2631 66.1072 86.6535 67.4171 87.479C68.2671 88.0146 71.4176 89.6397 71.6254 87.257C71.7921 85.3484 62.1825 80.3264 60.8893 79.5869Z" fill="white"/>
<path fill-rule="evenodd" clip-rule="evenodd" d="M62.6035 90.7361C65.6434 93.4506 61.8585 92.6835 60.0281 91.8382C49.604 87.0239 47.091 79.5276 32.1506 80.7956C32.0447 80.7845 36.4474 80.79 36.3407 80.8122C36.8669 81.2498 39.0907 81.7207 39.0907 81.7207C46.2884 83.8663 45.7109 84.9312 51.7133 89.2154C65.7319 99.22 66.2612 91.8445 62.6035 90.7361Z" fill="white"/>
<path fill-rule="evenodd" clip-rule="evenodd" d="M76.3361 76.7524C71.1292 66.7739 59.0596 68.2504 53.9025 62.5972C56.8618 67.7021 67.9811 68.4795 72.9241 74.8825C76.9223 80.0625 77.6878 84.7812 81.543 90.7725C81.6275 90.9029 81.8005 91.1209 81.8195 91.3058C80.4291 92.1487 77.5661 87.588 76.9175 86.7167C79.4163 92.915 83.6412 92.9877 82.0889 90.3507" fill="white"/>
<path fill-rule="evenodd" clip-rule="evenodd" d="M72.206 76.9807C72.2881 81.4711 78.7796 87.3313 74.1107 86.8336C71.6506 86.5705 70.2128 81.938 68.1343 79.8208C64.7674 76.3914 66.631 76.562 64.9791 73.3198C64.9593 73.2819 64.9467 73.2495 64.9404 73.2211C64.7563 73.0686 64.1077 72.6444 63.9062 72.4587C64.0042 72.4769 65.3417 72.8601 65.3496 73.1926C67.1595 75.8147 65.4412 76.1465 68.6273 79.041C71.5424 81.6899 72.2731 85.8255 74.8778 85.7939C75.2546 84.492 70.912 80.5554 72.206 76.9807ZM74.8738 85.8097L74.8691 85.8184L74.8707 85.82L74.8738 85.8097ZM65.0596 73.0125C65.0391 73.0236 65.0209 73.037 65.0051 73.0536C65.0209 73.0402 65.0391 73.0268 65.0596 73.0125Z" fill="white"/>
<path fill-rule="evenodd" clip-rule="evenodd" d="M82.6932 28.6477C83.4659 28.7299 84.2274 28.8405 84.9898 28.9503C54.4894 26.9358 27.5828 49.3528 24.3265 80.0214C20.9887 111.462 43.7707 139.655 75.2111 142.992C98.6023 145.475 120.187 133.495 131.085 114.254C120.483 137.013 96.2986 151.622 69.9355 148.823C36.75 145.301 12.7032 115.542 16.2266 82.3567C19.7492 49.1719 49.5077 25.1251 82.6932 28.6477Z" fill="white"/>
<path d="M122.143 98.3557C115.411 99.0517 116.613 110.66 125.383 108.896C132.485 107.785 134.321 101.992 132.773 98.7349C128.574 92.095 122.618 94.4958 118.121 96.4329C113.428 98.4 113.668 94.9042 115.759 92.7372C115.726 92.2901 112.253 94.4997 113.28 97.1976C114.306 99.8954 121.357 95.1223 127.888 97.3011C134.419 99.4799 126.198 108.384 127.165 104.338C128.132 100.292 124.792 97.7498 122.143 98.3557Z" fill="white"/>
<path d="M82.3804 138.85C81.893 139.544 78.1753 132.208 76.7303 128.852C75.2854 125.495 80.0262 119.251 92.0184 118.904C104.01 118.556 102.867 121.677 102.867 121.677C102.867 121.677 94.3118 117.51 90.3642 126.654C84.9266 133.828 82.8126 132.324 82.3804 138.85Z" fill="white"/>
<path d="M59.325 128.886C59.325 128.886 72.0922 131.546 80.057 139.271C78.7045 134.633 71.8916 123.072 59.6165 124.187C45.5711 125.464 43.2722 124.187 43.2722 124.187C43.2722 124.187 46.5918 126.996 56.5521 134.658C63.8572 140.277 73.2164 142.047 77.6901 141.786C75.6464 138.944 70.0951 132.714 59.325 128.886Z" fill="white"/>
<path d="M105.07 123.669C91.7916 122.462 84.9076 136.084 84.4106 139.734C87.7602 136.589 95.8822 129.709 103.633 128.886C103.633 128.886 93.0556 134.161 87.009 141.269C91.4875 141.525 100.836 139.753 108.135 134.14C118.095 126.478 121.415 123.669 121.415 123.669C121.415 123.669 119.115 124.946 105.07 123.669Z" fill="white"/>
<path d="M113.424 111.369C120.167 110.291 108.664 101.151 98.9459 102.37C90.8974 103.232 82.4231 110.88 82.4231 110.88C82.4231 110.88 94.1625 103.983 100.789 106.138C109.082 108.059 106.682 112.446 113.424 111.369Z" fill="white"/>
</svg>
