<svg width="32" height="32" viewBox="0 0 32 32" fill="none" xmlns="http://www.w3.org/2000/svg">
<path d="M16 32C24.8366 32 32 24.8366 32 16C32 7.16344 24.8366 0 16 0C7.16344 0 0 7.16344 0 16C0 24.8366 7.16344 32 16 32Z" fill="#3C5A99"/>
<path d="M17.2438 23.9998V16.7123H19.7L20.0688 13.8592H17.2438V12.0436C17.2438 11.2186 17.4719 10.6592 18.6531 10.6592H20.15V8.11543C19.8906 8.08105 18.9969 8.00293 17.9563 8.00293C15.7844 8.00293 14.2969 9.32793 14.2969 11.7623V13.8623H11.85V16.7154H14.2969V23.9998H17.2438Z" fill="white"/>
</svg>
