<svg width="228" height="41" viewBox="0 0 228 41" fill="none" xmlns="http://www.w3.org/2000/svg">
<path d="M202.514 13.4294L202.259 30.1668L199.877 30.1315L199.868 30.7376L207.541 30.8496L207.55 30.2435L205.139 30.2082L205.266 21.8825L212.571 21.9899L212.444 30.3157L210.092 30.2819L210.083 30.888L217.726 31L217.736 30.3939L215.332 30.3586L215.587 13.6212L217.991 13.6565L218 13.0443L210.357 12.9323L210.348 13.5445L212.699 13.5783L212.58 21.413L205.275 21.3056L205.394 13.4708L207.805 13.5061L207.814 12.8939L200.142 12.7819L200.132 13.3941L202.514 13.4294ZM191.94 30.0164L192.193 13.4156L193.444 13.434C194.928 13.4555 195.988 13.925 196.628 14.8426C197.252 15.8032 197.638 17.02 197.777 18.5007L198.521 18.5114L198.608 12.7589L182.901 12.5287L182.814 18.2812L183.555 18.292C183.688 16.8159 184.103 15.6114 184.787 14.6692C185.469 13.7716 186.556 13.3327 188.049 13.3542L189.321 13.3726L189.067 29.9735L186.267 29.9321L186.257 30.5381L194.725 30.6624L194.734 30.0563L191.94 30.0164ZM171.469 12.9752L173.85 13.0105L173.859 12.3983L166.216 12.2863L166.207 12.8985L168.588 12.9338L168.333 29.6712L165.952 29.6359L165.942 30.242L180.928 30.4614L181.028 23.8803L180.293 23.8696C180.029 25.7769 179.53 27.2177 178.786 28.1951C178.013 29.1863 176.793 29.6651 175.133 29.6405L171.215 29.5837L171.469 12.9752ZM164.658 29.616L162.32 29.5822L157.09 11.9579L156.575 11.9502L150.76 29.4134L148.585 29.3812L148.575 29.9873L154.36 30.0717L154.369 29.4656L151.65 29.4257L153.441 23.799L157.594 23.8604L159.052 29.5346L156.355 29.4947L156.345 30.1008L164.65 30.2221L164.658 29.616ZM157.442 23.1515L153.657 23.0962L155.732 16.7177L157.442 23.1515ZM146.288 29.9535L146.581 23.8005L145.861 23.7898C145.618 25.6894 145.053 27.0734 144.166 27.9327C143.3 28.8073 142.059 29.2354 140.435 29.2124L136.724 29.1587L136.849 20.9634L137.672 20.9757C138.958 20.9941 139.807 21.2166 140.234 21.6477C140.64 22.1004 140.832 22.9106 140.815 24.0783L140.799 25.0664L141.513 25.0772L141.643 16.5366L140.929 16.5259L140.915 17.4128C140.904 18.091 140.734 18.7446 140.393 19.3661C140.067 20.0029 139.12 20.3128 137.556 20.2913L136.858 20.2806L136.974 12.6331L140.266 12.6806C142.029 12.7067 143.259 13.1502 143.958 14.0033C144.622 14.8426 145.016 16.0302 145.146 17.5831L145.814 17.5923L145.723 11.9886L131.692 11.783L131.682 12.3952L134.093 12.4305L133.838 29.1679L131.427 29.1326L131.418 29.7387L146.288 29.9535ZM114.941 12.1482L114.686 28.8856L112.305 28.8503L112.295 29.4564L119.968 29.5684L119.978 28.9623L117.567 28.927L117.693 20.6013L124.998 20.7087L124.872 29.0344L122.52 29.0007L122.511 29.6068L130.154 29.7188L130.163 29.1127L127.76 29.0774L128.015 12.34L130.418 12.3753L130.428 11.763L122.784 11.651L122.775 12.2633L125.127 12.297L125.008 20.1317L117.703 20.0243L117.822 12.1896L120.233 12.2249L120.242 11.6127L112.569 11.5007L112.56 12.1129L114.941 12.1482ZM100.544 11.9364L103.189 11.9748L99.6831 19.2203L96.1346 11.872L98.832 11.9119L98.8413 11.2997L90.6538 11.18L90.6444 11.7922L92.6658 11.8213L97.0718 20.2054L96.9435 28.6247L94.5402 28.5894L94.5309 29.1955L102.226 29.3075L102.235 28.7015L99.8176 28.6662L99.9459 20.1962L104.048 11.9871L106.121 12.0178L106.131 11.4055L100.553 11.3242L100.544 11.9364ZM79.9926 11.6357L82.3739 11.671L82.3833 11.0588L74.7402 10.9467L74.7308 11.559L77.1121 11.5943L76.8571 28.3317L74.4758 28.2964L74.4664 28.9025L89.4521 29.1219L89.5523 22.5408L88.8169 22.53C88.5525 24.4373 88.0534 25.8781 87.3102 26.8556C86.5373 27.8468 85.3169 28.3255 83.6569 28.301L79.7391 28.2442L79.9926 11.6357ZM70.9773 28.2442L71.2323 11.5068L73.6137 11.5421L73.6231 10.9299L65.9502 10.8178L65.9408 11.4301L68.3222 11.4654L68.0671 28.2028L65.6858 28.1675L65.6764 28.7736L73.3492 28.8856L73.3586 28.2795L70.9773 28.2442ZM58.6654 10.7104L53.3161 24.5386L48.5002 10.5616L42.6642 10.4757L42.6548 11.0879L45.0581 11.1232L44.803 27.8606L42.3998 27.8253L42.3904 28.4314L48.4032 28.5189L48.4126 27.9128L45.5681 27.8713L45.8153 11.6679L51.9345 28.9101L52.2646 28.9147L59.03 11.8612L58.7828 28.0647L55.9602 28.0232L55.9508 28.6293L64.0649 28.7475L64.0743 28.1414L61.6929 28.1061L61.948 11.3687L64.3293 11.404L64.3387 10.7918L58.6654 10.7104ZM41.0339 27.8054L38.6964 27.7716L33.4659 10.1473L32.9512 10.1396L27.1355 27.6028L24.9607 27.5706L24.9514 28.1767L30.7357 28.2611L30.7451 27.655L28.0258 27.6151L29.8173 21.9884L33.9697 22.0498L35.4264 27.724L32.729 27.6841L32.7196 28.2902L41.0245 28.4114L41.0339 27.8054ZM33.818 21.3409L30.0332 21.2856L32.1079 14.9071L33.818 21.3409ZM15.2727 27.4279L15.3994 19.1021L16.1708 19.1129C17.4569 19.1313 18.3206 19.3676 18.7618 19.8141C19.1811 20.2821 19.3814 21.0984 19.3642 22.2676L19.3485 23.2619L20.0463 23.2727L20.1777 14.6815L19.4799 14.6708L19.4659 15.55C19.4565 16.2128 19.2765 16.8665 18.9214 17.5033C18.5959 18.1477 17.6415 18.4577 16.055 18.4347L15.4088 18.4255L15.5246 10.8501L18.7446 10.8976C20.5079 10.9237 21.7377 11.3457 22.437 12.1697C23.0926 12.9936 23.4884 14.1383 23.6199 15.6114L24.2958 15.6206L24.2019 10.2041L10.2738 10L10.2644 10.6122L12.6457 10.6475L12.3907 27.3849L10.0094 27.3496L10 27.9557L17.6728 28.0677L17.6822 27.4616L15.2727 27.4279Z" fill="white"/>
</svg>
